<svg width="53" height="8" viewBox="0 0 53 8" fill="none" xmlns="http://www.w3.org/2000/svg">
<path d="M5.11328 6.38867H2.28809L1.75098 8H0.0375977L2.94873 0.179688H4.44189L7.36914 8H5.65576L5.11328 6.38867ZM2.72314 5.0835H4.67822L3.69531 2.15625L2.72314 5.0835ZM10.2051 0.179688L12.2139 5.85156L14.2119 0.179688H16.3281V8H14.7114V5.8623L14.8726 2.17236L12.7617 8H11.6553L9.5498 2.17773L9.71094 5.8623V8H8.09961V0.179688H10.2051ZM19.8408 0.179688L21.8496 5.85156L23.8477 0.179688H25.9639V8H24.3472V5.8623L24.5083 2.17236L22.3975 8H21.291L19.1855 2.17773L19.3467 5.8623V8H17.7354V0.179688H19.8408ZM32.0762 4.61084H28.9824V6.70557H32.6133V8H27.3711V0.179688H32.6025V1.48486H28.9824V3.34863H32.0762V4.61084ZM39.5527 1.48486H37.1572V8H35.5459V1.48486H33.1826V0.179688H39.5527V1.48486ZM45.1816 4.61084H42.0879V6.70557H45.7188V8H40.4766V0.179688H45.708V1.48486H42.0879V3.34863H45.1816V4.61084ZM49.5591 5.13721H48.2754V8H46.6641V0.179688H49.5698C50.4937 0.179688 51.2062 0.385579 51.7075 0.797363C52.2088 1.20915 52.4595 1.79102 52.4595 2.54297C52.4595 3.0765 52.3431 3.5223 52.1104 3.88037C51.8812 4.23486 51.5321 4.51774 51.063 4.729L52.7549 7.9248V8H51.0254L49.5591 5.13721ZM48.2754 3.83203H49.5752C49.9798 3.83203 50.2931 3.72998 50.5151 3.52588C50.7371 3.3182 50.8481 3.03353 50.8481 2.67188C50.8481 2.30306 50.7425 2.01302 50.5312 1.80176C50.3236 1.59049 50.0031 1.48486 49.5698 1.48486H48.2754V3.83203Z" fill="black"/>
</svg>
