<svg width="120" height="109" viewBox="0 0 120 109" fill="none" xmlns="http://www.w3.org/2000/svg">
<path d="M112 13.4792H8C3.58172 13.4792 0 15.6059 0 18.2292V103.729C0 106.353 3.58172 108.479 8 108.479H112C116.418 108.479 120 106.353 120 103.729V18.2292C120 15.6059 116.418 13.4792 112 13.4792Z" fill="url(#paint0_linear)"/>
<path d="M95.8804 44.2552H24.1196C21.9178 44.2552 20.1329 46.0437 20.1329 48.2499V86.2C20.1329 88.4063 21.9178 90.1948 24.1196 90.1948H95.8804C98.0822 90.1948 99.8671 88.4063 99.8671 86.2V48.2499C99.8671 46.0437 98.0822 44.2552 95.8804 44.2552Z" fill="#CCCCCC"/>
<path d="M95.8279 45.8087H24.1721C23.7318 45.8087 23.3748 46.1664 23.3748 46.6077V85.8649C23.3748 86.3062 23.7318 86.6639 24.1721 86.6639H95.8279C96.2683 86.6639 96.6252 86.3062 96.6252 85.8649V46.6077C96.6252 46.1664 96.2683 45.8087 95.8279 45.8087Z" fill="white"/>
<path d="M90.2243 66.74L88.9908 64.7426C88.8846 64.5709 88.8311 64.3831 88.7417 64.2058C82.1543 69.083 71.7427 72.1329 60 72.1329C48.2573 72.1329 37.8582 69.083 31.2708 64.2058C31.1809 64.3841 31.116 64.5699 31.0092 64.7426L29.7757 66.74C37.0468 71.7584 47.8804 74.9542 60 74.9542C72.1155 74.9542 82.9533 71.7555 90.2243 66.74Z" fill="#81797A"/>
<path d="M59.936 25.4584C53.6378 25.414 14.9876 28.1228 16.0445 40.1016V52.9972H103.977V39.0156C103.977 31.5312 84.2467 25.4584 59.936 25.4584Z" fill="url(#paint1_linear)"/>
<path d="M92.1587 74.6858L90.7543 71.9211L89.0065 69.3604L90.4109 72.1251L92.1587 74.6858ZM86.0967 77.7225L85.0558 74.8008L83.6484 72.0376L84.6893 74.9593L86.0967 77.7225ZM79.7744 80.0333L79.066 77.0133L77.9758 74.1097L78.6841 77.1297L79.7744 80.0333ZM73.3282 81.6744L72.8825 78.6043L72.0463 75.6173L72.4912 78.6834L73.3282 81.6744ZM66.6924 82.6753L66.5722 79.5753L66.055 76.5166L66.1752 79.6166L66.6924 82.6753ZM59.9948 83.0301L60.198 79.9344L60.002 76.8383L59.7988 79.934L59.9948 83.0301ZM53.3577 82.7397L53.819 79.672L53.8825 76.5703L53.4212 79.638L53.3577 82.7397ZM46.7116 81.7915L47.4958 78.7903L47.8881 75.713L47.1039 78.7142L46.7116 81.7915ZM40.1831 80.1823L41.2912 77.284L42.0173 74.2696L40.9096 77.1666L40.1831 80.1823ZM33.9058 77.9085L35.2809 75.129L36.2877 72.1953L34.9131 74.9737L33.9058 77.9085ZM27.774 74.744L29.5923 72.232L31.072 69.5081L29.2543 72.0193L27.774 74.744Z" fill="#666666"/>
<path d="M89.1054 71.3492L89.8239 72.7196L90.7142 73.9864L89.9956 72.6161L89.1054 71.3492ZM88.2858 71.811L88.9473 73.2095L89.7846 74.5115L89.1231 73.1131L88.2858 71.811ZM87.4002 72.2853L88.0617 73.6838L88.8991 74.9858L88.2376 73.5873L87.4002 72.2853ZM86.5566 72.7077L87.1622 74.1309L87.9472 75.4647L87.3417 74.0415L86.5566 72.7077ZM85.653 73.147L86.2585 74.5702L87.0436 75.904L86.438 74.4808L85.653 73.147ZM84.7888 73.5316L85.3395 74.9767L86.073 76.3393L85.5223 74.8942L84.7888 73.5316ZM83.0928 74.1259L83.5896 75.5902L84.2721 76.9786L83.7753 75.5143L83.0928 74.1259ZM82.2091 74.4736L82.6529 75.9546L83.285 77.3664L82.8411 75.8852L82.2091 74.4736ZM81.2622 74.811L81.706 76.292L82.3381 77.7038L81.8943 76.2228L81.2622 74.811ZM80.3646 75.1252L80.7561 76.6207L81.3383 78.0536L80.9468 76.5581L80.3646 75.1252ZM79.4064 75.4296L79.7979 76.9251L80.3801 78.358L79.9886 76.8625L79.4064 75.4296ZM77.2469 76.0197L77.5869 77.5276L78.1196 78.9794L77.7796 77.4715L77.2469 76.0197ZM76.3272 76.2713L76.6163 77.7897L77.0999 79.2584L76.8108 77.74L76.3272 76.2713ZM75.3505 76.5107L75.6396 78.0291L76.1232 79.4978L75.8341 77.9794L75.3505 76.5107ZM74.4222 76.7329L74.661 78.2599L75.0958 79.7436L74.857 78.2166L74.4222 76.7329ZM73.4382 76.9403L73.677 78.4673L74.1117 79.951L73.873 78.424L73.4382 76.9403ZM71.7943 77.2738L71.9831 78.8077L72.3693 80.3046L72.1804 78.7707L71.7943 77.2738ZM70.8529 77.4405L70.9922 78.9796L71.379 80.4802L71.1901 78.9463L70.8529 77.4405ZM69.8575 77.5845L69.9968 79.1236L70.3345 80.6321L70.1952 79.0929L69.8575 77.5845ZM68.862 77.7285L69.0014 79.2676L69.3391 80.776L69.1998 79.2369L68.862 77.7285ZM67.9117 77.8376L68.0019 79.3804L68.2912 80.8987L68.2011 79.356L67.9117 77.8376ZM66.9122 77.9501L67.0023 79.4929L67.2917 81.0112L67.2016 79.4685L66.9122 77.9501ZM64.9565 78.1153L64.9976 79.6602L65.2386 81.1868L65.1976 79.642L64.9565 78.1153ZM64.0013 78.1753L63.9937 79.7206L64.1865 81.2541L64.1941 79.7087L64.0013 78.1753V78.1753ZM62.9967 78.2251L62.9891 79.7704L63.1818 81.3039L63.1894 79.7585L62.9967 78.2251ZM62.0402 78.2618L61.9838 79.8061L62.1281 81.3448L62.1845 79.8005L62.0402 78.2618ZM61.0344 78.2802L60.978 79.8246L61.1224 81.3633L61.1788 79.8189L61.0344 78.2802ZM59.0714 78.2818L58.9664 79.8237L59.0623 81.3661L59.1672 79.8243L59.0714 78.2818ZM58.0655 78.2691L57.9606 79.8109L58.0565 81.3533L58.1614 79.8115L58.0655 78.2691ZM57.1091 78.2297L56.9556 79.7675L57.0029 81.3121L57.1563 79.7743L57.1091 78.2297ZM56.1042 78.1856L55.9507 79.7234L55.9979 81.2681L56.1514 79.7302L56.1042 78.1856ZM55.1492 78.1229L54.9472 79.6552L54.9456 81.2006L55.1476 79.6683L55.1492 78.1229ZM54.1461 78.0475L53.9442 79.5798L53.9426 81.1252L54.1445 79.5929L54.1461 78.0475H54.1461ZM53.1933 77.9607L52.9428 79.4859L52.8922 81.0304L53.1427 79.5053L53.1933 77.9607ZM52.1931 77.8539L51.9427 79.3791L51.892 80.9236L52.1425 79.3984L52.1931 77.8539ZM51.2433 77.742L50.9442 79.2585L50.8443 80.8007L51.1433 79.2842L51.2433 77.742ZM50.247 77.6037L49.948 79.1202L49.848 80.6623L50.1471 79.1458L50.247 77.6037ZM49.3011 77.4657L48.9533 78.9719L48.8037 80.5101L49.1515 79.0039L49.3011 77.4657ZM48.3098 77.2957L47.962 78.8019L47.8124 80.3401L48.1602 78.8339L48.3098 77.2957ZM46.3836 76.9289L45.9869 78.4231L45.7872 79.9557L46.1839 78.4615L46.3836 76.9289ZM45.4487 76.7358L45.0028 78.2162L44.7526 79.7415L45.1987 78.2597L45.4487 76.7358ZM44.4707 76.5019L44.0248 77.9823L43.7746 79.5076L44.2205 78.0271L44.4707 76.5019ZM43.5433 76.2795L43.0479 77.7443L42.7465 79.2604L43.2425 77.7932L43.5433 76.2795ZM42.5737 76.0133L42.0783 77.4781L41.777 78.9941L42.2724 77.5293L42.5737 76.0133ZM40.6954 75.4615L40.1501 76.9086L39.7969 78.4136L40.3423 76.9664L40.6954 75.4615ZM39.7878 75.1768L39.192 76.6042L38.7863 78.0961L39.3824 76.6675L39.7878 75.1768ZM38.839 74.8448L38.2432 76.2722L37.8375 77.764L38.4333 76.3366L38.839 74.8448ZM37.9441 74.527L37.2973 75.9323L36.8381 77.4088L37.4849 76.0035L37.9441 74.527ZM37.0079 74.1615L36.3611 75.5668L35.9019 77.0432L36.5487 75.6379L37.0079 74.1615ZM36.128 73.8091L35.4296 75.1897L34.9161 76.6483L35.6145 75.2677L36.128 73.8091ZM34.3438 73.0208L33.5931 74.3741L33.0241 75.8122L33.7748 74.4589L34.3438 73.0208ZM33.4377 72.5866L32.687 73.9399L32.118 75.3781L32.8687 74.0248L33.4377 72.5866ZM32.5963 72.16L31.7926 73.4828L31.167 74.8976L31.9708 73.5748L32.5963 72.16ZM31.7081 71.6907L30.9044 73.0136L30.2789 74.4283L31.0826 73.1055L31.7081 71.6907ZM30.8911 71.2244L30.0335 72.5134L29.3503 73.9015L30.2078 72.6125L30.8911 71.2244Z" fill="#666666"/>
<path d="M61.0327 65.5391H58.4492L57.998 67H55.9839L58.8521 59.1797H60.6245L63.5142 67H61.4893L61.0327 65.5391ZM58.9004 64.0835H60.5815L59.7383 61.3711L58.9004 64.0835Z" fill="#B7B2B6"/>
<path d="M27.2264 75.5851C27.0533 75.4849 26.8378 75.4583 26.6539 75.5165C26.4023 75.595 26.1392 75.821 25.9819 76.0941C25.6627 76.6483 25.7345 77.1976 26.1568 77.442C26.5791 77.6864 27.0934 77.4797 27.4035 76.9413C27.7258 76.3819 27.654 75.8325 27.2264 75.5851ZM27.1643 75.7173C27.2771 75.7825 27.3491 75.8943 27.3625 76.0351C27.3836 76.2049 27.2957 76.4727 27.1308 76.759C27.0067 76.9744 26.8644 77.1546 26.7292 77.262C26.5822 77.3835 26.3842 77.4055 26.2346 77.319C26.0668 77.2218 25.9906 77.0202 26.0392 76.7962C26.0744 76.6379 26.1472 76.4629 26.2485 76.287C26.362 76.09 26.5417 75.8753 26.6841 75.7616C26.8307 75.6468 27.0121 75.6292 27.1643 75.7173Z" fill="#4D4D4D"/>
<path d="M34.1388 78.802L34.0331 78.7563C33.9459 78.821 33.9065 78.8205 33.7647 78.7592L32.9246 78.3961L32.4947 79.3958L32.6023 79.4754C32.824 79.3433 32.96 79.3262 33.1492 79.4079C33.444 79.5354 33.5426 79.8125 33.4085 80.1244C33.2707 80.4447 32.9818 80.5642 32.6731 80.4307C32.4923 80.3525 32.3756 80.2096 32.4163 80.1149L32.4324 80.0856C32.4921 80.0156 32.4921 80.0156 32.5017 79.9934C32.5377 79.9098 32.4937 79.8049 32.4075 79.7677C32.3129 79.7268 32.2031 79.7751 32.1611 79.8726C32.0617 80.1037 32.2799 80.4094 32.6582 80.5729C33.1228 80.7737 33.5648 80.6279 33.7409 80.2186C33.9014 79.8454 33.725 79.4653 33.3106 79.2862C33.1242 79.2056 32.9799 79.1961 32.7595 79.256L32.999 78.699L33.9503 79.1103L34.1389 78.8021" fill="#4D4D4D"/>
<path d="M39.1666 80.5673L39.0732 80.5414C38.8713 80.5326 38.8068 80.5273 38.5051 80.4815L38.4809 80.5692L38.5961 80.6074C38.8068 80.6753 38.8264 80.7184 38.7628 80.9494L38.4542 82.0691C38.4107 82.227 38.3891 82.2713 38.3518 82.2925C38.2922 82.3263 38.1958 82.3342 38.1007 82.3141L38.0027 82.2933L37.9786 82.381L38.9743 82.6569L38.9985 82.5692L38.9066 82.5375C38.6887 82.4613 38.6608 82.4033 38.73 82.1518L39.1666 80.5673" fill="#4D4D4D"/>
<path d="M40.7882 80.9755C40.5955 80.9221 40.3803 80.9505 40.2169 81.0531C39.9931 81.1925 39.7952 81.4774 39.7114 81.7814C39.5415 82.3982 39.7488 82.9119 40.2188 83.0422C40.6889 83.1725 41.1347 82.843 41.2998 82.2437C41.4714 81.6211 41.2641 81.1074 40.7882 80.9755ZM40.7613 81.1191C40.8868 81.1539 40.9845 81.2439 41.0328 81.3768C41.0958 81.5359 41.078 81.8173 40.9902 82.1359C40.9241 82.3756 40.8316 82.5859 40.7276 82.7239C40.6159 82.8785 40.4297 82.9496 40.2633 82.9035C40.0765 82.8517 39.9521 82.6757 39.943 82.4466C39.9373 82.2846 39.9639 82.0968 40.0179 81.901C40.0783 81.6818 40.1983 81.4287 40.3076 81.2828C40.4207 81.1348 40.5919 81.0721 40.7613 81.1191Z" fill="#4D4D4D"/>
<path d="M45.7243 82.1466L45.6289 82.1295C45.4271 82.1397 45.3623 82.1405 45.0578 82.1231L45.0419 82.2127L45.1601 82.24C45.3762 82.2878 45.3997 82.329 45.3579 82.5649L45.1551 83.7086C45.1265 83.8699 45.1091 83.9161 45.074 83.9406C45.0178 83.9799 44.9225 83.9968 44.826 83.9857L44.7265 83.9741L44.7106 84.0637L45.7276 84.2452L45.7435 84.1556L45.6491 84.1326C45.4251 84.0772 45.3918 84.022 45.4374 83.7652L45.7243 82.1466" fill="#4D4D4D"/>
<path d="M48.0093 82.4431L47.896 82.4229C47.8259 82.5059 47.7875 82.5144 47.6354 82.4873L46.7349 82.3265L46.5448 83.3986L46.6678 83.4513C46.8534 83.2719 46.9819 83.224 47.1846 83.2601C47.5007 83.3165 47.6599 83.5637 47.6007 83.8981C47.5398 84.2415 47.2859 84.4242 46.9549 84.3651C46.7611 84.3306 46.6149 84.2182 46.6329 84.1167L46.6418 84.0844C46.684 84.0026 46.684 84.0026 46.6883 83.9787C46.7041 83.8891 46.6374 83.7971 46.5449 83.7806C46.4436 83.7625 46.3477 83.8347 46.3292 83.9393C46.2852 84.1871 46.5674 84.4346 46.973 84.507C47.471 84.5959 47.8679 84.3525 47.9457 83.9135C48.0166 83.5134 47.7582 83.1838 47.3139 83.1045C47.1141 83.0689 46.9714 83.0927 46.7706 83.2017L46.8765 82.6044L47.8963 82.7864L48.0095 82.4431" fill="#4D4D4D"/>
<path d="M53.0429 84.6429L52.9305 84.6038L52.895 84.6711C52.7742 84.8991 52.7014 84.9361 52.4267 84.9149L51.7413 84.8622C52.1181 84.663 52.2359 84.593 52.3934 84.4804C52.7695 84.2111 52.9661 83.9464 52.9859 83.6893C53.0125 83.3445 52.7234 83.0759 52.2886 83.0424C51.8931 83.012 51.5409 83.2466 51.5171 83.555C51.5059 83.7002 51.5881 83.8161 51.7028 83.8249C51.7934 83.8318 51.881 83.7595 51.8875 83.6748C51.8899 83.6446 51.8778 83.6041 51.8588 83.5752C51.8096 83.5045 51.8021 83.4827 51.8061 83.4312C51.8173 83.2861 52.0329 83.1688 52.2533 83.1857C52.5009 83.2048 52.6513 83.3807 52.6329 83.6196C52.6152 83.8494 52.4857 84.0707 52.2134 84.3327C51.9971 84.5381 51.8018 84.6691 51.4034 84.8727L51.3871 85.0844L52.8544 85.1973L53.043 84.6429" fill="#4D4D4D"/>
<path d="M54.2322 83.1923C54.0329 83.1769 53.8272 83.2462 53.6864 83.3783C53.4935 83.5581 53.3537 83.8759 53.3295 84.1904C53.2806 84.8285 53.5821 85.293 54.0682 85.3306C54.5542 85.3681 54.9288 84.959 54.9764 84.339C55.0258 83.6948 54.7243 83.2303 54.2322 83.1923ZM54.2332 83.3384C54.363 83.3484 54.4761 83.418 54.5488 83.5393C54.641 83.6833 54.6772 83.963 54.6519 84.2926C54.6329 84.5406 54.5823 84.7649 54.5066 84.9203C54.4265 85.0936 54.2574 85.1992 54.0853 85.1859C53.8921 85.1709 53.7365 85.022 53.6838 84.7989C53.6473 84.6409 53.6375 84.4515 53.6531 84.2489C53.6705 84.022 53.7399 83.7506 53.8193 83.5863C53.902 83.4193 54.058 83.3249 54.2332 83.3384Z" fill="#4D4D4D"/>
<path d="M60.0816 84.9349L59.9661 84.9062L59.9368 84.9764C59.8373 85.2145 59.7682 85.258 59.4928 85.2619L58.8055 85.2719C59.1625 85.0392 59.2734 84.9587 59.42 84.8322C59.7699 84.5298 59.9415 84.2482 59.9378 83.9903C59.9329 83.6446 59.6206 83.4033 59.1846 83.4096C58.788 83.4153 58.4587 83.681 58.4632 83.9904C58.4653 84.136 58.5577 84.2439 58.6727 84.2422C58.7635 84.2409 58.8441 84.1609 58.8429 84.0759C58.8425 84.0456 58.8268 84.0064 58.8052 83.9794C58.7498 83.9135 58.7404 83.8924 58.7396 83.8408C58.7375 83.6952 58.9415 83.5588 59.1625 83.5556C59.4107 83.552 59.5766 83.7134 59.58 83.953C59.5833 84.1836 59.4746 84.4157 59.2274 84.7014C59.0307 84.9258 58.8481 85.074 58.47 85.3131L58.4731 85.5254L59.9444 85.5042L60.0816 84.9349" fill="#4D4D4D"/>
<path d="M61.7633 83.3026L61.6483 83.3043C61.5951 83.3991 61.559 83.4148 61.4046 83.417L60.4903 83.4302L60.5059 84.5192L60.6365 84.5476C60.7849 84.3361 60.902 84.2647 61.1078 84.2617C61.4287 84.2571 61.6316 84.4695 61.6365 84.8093C61.6415 85.1581 61.4267 85.3857 61.0907 85.3906C60.8939 85.3934 60.7292 85.3108 60.7277 85.2077L60.7305 85.1743C60.7564 85.086 60.7564 85.086 60.7561 85.0617C60.7548 84.9707 60.6719 84.893 60.5781 84.8944C60.4751 84.8958 60.3947 84.985 60.3962 85.0912C60.3998 85.3429 60.7235 85.5324 61.1352 85.5265C61.6408 85.5192 61.9845 85.2047 61.9781 84.7588C61.9723 84.3524 61.6564 84.0778 61.2054 84.0843C61.0025 84.0873 60.867 84.1378 60.6904 84.2829L60.6817 83.6762L61.7171 83.6613L61.7634 83.3026" fill="#4D4D4D"/>
<path d="M66.0912 84.2402C66.2138 84.217 66.2648 84.2093 66.301 84.206C66.4367 84.1938 66.5853 84.223 66.6725 84.2791C66.7758 84.3459 66.8496 84.4884 66.8638 84.6455C66.8917 84.9536 66.7151 85.1524 66.3923 85.1815C66.2596 85.1935 66.1426 85.1767 66.0532 85.1299C65.9926 85.0989 65.9414 85.0365 65.937 84.9882C65.9362 84.9791 65.9385 84.9697 65.94 84.9544C65.9551 84.886 65.9551 84.886 65.9518 84.8498C65.9431 84.7531 65.8672 84.6869 65.7676 84.6958C65.6651 84.7051 65.5921 84.8061 65.6025 84.9209C65.6126 85.0327 65.6954 85.1409 65.8207 85.2149C65.9811 85.307 66.1634 85.3393 66.3926 85.3186C66.8993 85.2728 67.2374 84.9773 67.2041 84.6087C67.1879 84.4305 67.0799 84.2788 66.9179 84.2021C66.8162 84.1534 66.7353 84.1333 66.5481 84.1137C66.7164 84.0589 66.7918 84.0186 66.8648 83.9511C66.9627 83.857 67.0178 83.7271 67.0069 83.6062C66.9812 83.3223 66.6577 83.1414 66.2415 83.179C66.0605 83.1953 65.9135 83.2513 65.8003 83.3437C65.67 83.4499 65.5951 83.5968 65.6072 83.7297C65.6173 83.8414 65.7001 83.9162 65.7996 83.9072C65.8901 83.899 65.9595 83.8258 65.9524 83.7472C65.9504 83.7261 65.9422 83.7025 65.9307 83.6761C65.8871 83.5978 65.8871 83.5978 65.8849 83.5736C65.8737 83.4498 66.0306 83.3351 66.2357 83.3166C66.486 83.2939 66.6623 83.4272 66.6831 83.6568C66.6924 83.7595 66.6575 83.8784 66.5964 83.9418C66.5245 84.0214 66.3781 84.0834 66.2303 84.0967C66.2062 84.0989 66.1546 84.1003 66.0789 84.1043L66.0913 84.2402" fill="#4D4D4D"/>
<path d="M68.1385 83.007C67.9394 83.0251 67.748 83.1277 67.6311 83.2815C67.4706 83.491 67.3854 83.8276 67.4137 84.1418C67.4711 84.7793 67.8454 85.1869 68.3309 85.1428C68.8165 85.0987 69.1181 84.6328 69.0623 84.0135C69.0043 83.37 68.63 82.9624 68.1385 83.007ZM68.1636 83.1509C68.2933 83.1391 68.4163 83.1889 68.5081 83.2963C68.6229 83.4229 68.705 83.6926 68.7347 84.0219C68.757 84.2696 68.7442 84.4992 68.6953 84.6651C68.645 84.8493 68.4958 84.9817 68.3239 84.9973C68.1309 85.0148 67.9527 84.8939 67.8638 84.6827C67.8016 84.533 67.7606 84.3479 67.7424 84.1455C67.722 83.9189 67.7455 83.6396 67.7966 83.4644C67.8504 83.2859 67.9887 83.1668 68.1636 83.1509Z" fill="#4D4D4D"/>
<path d="M86.4014 78.6672L86.1333 78.772L86.1089 78.8597L85.9199 79.6529L85.7064 80.4166L85.7938 80.5159L86.6771 80.1706L86.7233 80.2892C86.7727 80.4164 86.789 80.4751 86.7858 80.5252C86.783 80.5849 86.7341 80.6431 86.6657 80.6763L86.5748 80.7183L86.6078 80.8031L87.4233 80.4843L87.3904 80.3995L87.2951 80.4303C87.2223 80.4522 87.1499 80.4415 87.1047 80.4005C87.0713 80.3648 87.0397 80.3088 86.9914 80.1844L86.9452 80.0658L87.3121 79.9223L87.3116 79.737L86.8826 79.9047L86.4014 78.6672L86.4014 78.6672ZM86.6145 80.0095L85.8892 80.2931C85.8946 80.265 85.901 80.2397 85.9102 80.2133L85.9929 79.9075L86.11 79.4646L86.2267 79.0122L86.6145 80.0095Z" fill="#4D4D4D"/>
<path d="M88.3115 77.8037L88.2042 77.8456C88.1875 77.9531 88.1591 77.9804 88.0152 78.0367L87.1629 78.3699L87.5573 79.3843L87.6896 79.365C87.7549 79.1149 87.8397 79.0069 88.0316 78.9319C88.3308 78.8149 88.5951 78.9427 88.7181 79.2592C88.8445 79.5841 88.7226 79.8727 88.4093 79.9951C88.2259 80.0668 88.0427 80.0473 88.0054 79.9512L87.9963 79.919C87.9898 79.8271 87.9898 79.8271 87.981 79.8045C87.9481 79.7198 87.8433 79.6761 87.7558 79.7103C87.6598 79.7478 87.6155 79.8595 87.654 79.9584C87.7452 80.1929 88.1146 80.2568 88.4985 80.1068C88.9698 79.9225 89.1823 79.5074 89.0207 79.0921C88.8735 78.7135 88.4817 78.5672 88.0612 78.7315C87.8721 78.8055 87.7627 78.9003 87.6478 79.0982L87.4281 78.5331L88.3933 78.1558L88.3116 77.8036" fill="#4D4D4D"/>
<path d="M79.8606 80.8536L79.5836 80.9316L79.5506 81.0164L79.2849 81.7872L78.9976 82.5263L79.0748 82.6337L79.9877 82.377L80.022 82.4996C80.0587 82.631 80.0692 82.6911 80.061 82.7406C80.0524 82.7997 79.998 82.8528 79.9267 82.8792L79.8321 82.9121L79.8566 82.9997L80.6994 82.7626L80.675 82.675L80.5771 82.6963C80.5025 82.7109 80.4315 82.6931 80.3906 82.6479C80.3608 82.6091 80.3349 82.5502 80.299 82.4217L80.2647 82.2991L80.6439 82.1924L80.6615 82.0079L80.2182 82.1326L79.8606 80.8536ZM79.9411 82.2105L79.1916 82.4213C79.1997 82.3939 79.2085 82.3694 79.2203 82.344L79.3326 82.0478L79.4925 81.6186L79.6529 81.1798L79.9411 82.2105Z" fill="#4D4D4D"/>
<path d="M81.2582 80.4201C81.0657 80.4742 80.8961 80.6101 80.8091 80.7826C80.6893 81.0179 80.6666 81.3645 80.7515 81.6681C80.9238 82.2843 81.3659 82.6167 81.8354 82.4846C82.305 82.3526 82.517 81.8394 82.3496 81.2407C82.1757 80.6187 81.7336 80.2864 81.2582 80.4201ZM81.3091 80.5569C81.4345 80.5217 81.5646 80.5481 81.6743 80.6369C81.8102 80.7404 81.94 80.9906 82.0289 81.3089C82.0959 81.5483 82.1251 81.7764 82.1071 81.9484C82.0911 82.1387 81.9683 82.296 81.8021 82.3428C81.6154 82.3953 81.4183 82.309 81.2924 82.1176C81.2041 81.9818 81.1302 81.8073 81.0755 81.6117C81.0142 81.3927 80.9866 81.1138 81.0051 80.9322C81.0256 80.7469 81.1399 80.6045 81.3091 80.5569Z" fill="#4D4D4D"/>
<path d="M92.5794 75.6428L92.4766 75.6945C92.47 75.803 92.4443 75.833 92.3063 75.9024L91.4887 76.3139L91.977 77.2864L92.1069 77.2549C92.1485 76.9999 92.2228 76.8844 92.4068 76.7918C92.6938 76.6474 92.969 76.7498 93.1213 77.0532C93.2777 77.3648 93.1835 77.6633 92.883 77.8146C92.707 77.9031 92.5227 77.9008 92.4765 77.8087L92.4644 77.7775C92.4493 77.6867 92.4493 77.6867 92.4384 77.665C92.3976 77.5837 92.2892 77.5501 92.2053 77.5923C92.1132 77.6386 92.0796 77.754 92.1272 77.8488C92.2401 78.0737 92.614 78.1026 92.9822 77.9173C93.4343 77.6898 93.6069 77.2568 93.407 76.8586C93.2247 76.4956 92.8208 76.3867 92.4174 76.5897C92.2361 76.6809 92.136 76.7856 92.0402 76.9933L91.7682 76.4515L92.694 75.9855L92.5796 75.6427" fill="#4D4D4D"/>
<path d="M93.7223 75.1453C93.5437 75.2353 93.4031 75.4011 93.3506 75.5871C93.2779 75.841 93.3218 76.1855 93.4631 76.4673C93.7498 77.039 94.2472 77.2805 94.6829 77.061C95.1187 76.8414 95.2288 76.2972 94.9503 75.7417C94.6609 75.1645 94.1635 74.923 93.7223 75.1453ZM93.7984 75.2699C93.9147 75.2112 94.0475 75.2123 94.1722 75.2784C94.3253 75.354 94.5004 75.5747 94.6485 75.87C94.7599 76.0922 94.8321 76.3104 94.8472 76.4827C94.8679 76.6725 94.7774 76.8505 94.6231 76.9282C94.4499 77.0155 94.2399 76.9685 94.0799 76.8048C93.9673 76.6884 93.8614 76.5313 93.7703 76.3498C93.6684 76.1466 93.5881 75.8782 93.5715 75.6964C93.5563 75.5106 93.6414 75.349 93.7984 75.2699Z" fill="#4D4D4D"/>
<path d="M72.7185 83.448C72.8386 83.4139 72.8887 83.4018 72.9245 83.3953C73.0586 83.371 73.2092 83.3869 73.3009 83.435C73.4097 83.4923 73.4956 83.6278 73.5236 83.783C73.5783 84.0874 73.4198 84.3011 73.1009 84.3588C72.9697 84.3826 72.8516 84.3762 72.7585 84.3376C72.6954 84.312 72.6389 84.2545 72.6303 84.2067C72.6287 84.1978 72.6302 84.1882 72.6304 84.1728C72.6395 84.1034 72.6395 84.1034 72.633 84.0676C72.6158 83.972 72.5344 83.9128 72.436 83.9306C72.3347 83.949 72.2709 84.0561 72.2913 84.1695C72.3112 84.28 72.4031 84.3804 72.5344 84.4429C72.7022 84.5204 72.8866 84.5363 73.1131 84.4953C73.6139 84.4046 73.9248 84.0802 73.8593 83.7161C73.8276 83.54 73.7068 83.3985 73.5387 83.3365C73.4331 83.297 73.3508 83.2842 73.1625 83.2813C73.3254 83.2118 73.397 83.1649 73.4638 83.0911C73.5531 82.9887 73.5966 82.8544 73.5751 82.735C73.5247 82.4545 73.1866 82.303 72.7753 82.3775C72.5964 82.4099 72.4549 82.4787 72.3502 82.5809C72.2297 82.6982 72.168 82.8512 72.1916 82.9825C72.2115 83.0929 72.3005 83.16 72.3989 83.1422C72.4883 83.126 72.551 83.0469 72.537 82.9693C72.5333 82.9484 72.523 82.9256 72.5092 82.9003C72.459 82.8262 72.459 82.8262 72.4547 82.8023C72.4327 82.68 72.5789 82.5518 72.7815 82.5151C73.0289 82.4703 73.2162 82.5874 73.257 82.8142C73.2752 82.9157 73.2509 83.0372 73.1956 83.1058C73.131 83.1915 72.9905 83.2662 72.8445 83.2927C72.8207 83.297 72.7694 83.303 72.6944 83.3137L72.7185 83.448" fill="#4D4D4D"/>
<path d="M75.2574 81.8576L75.1441 81.8781C75.1071 81.9803 75.074 82.0018 74.922 82.0293L74.0219 82.1923L74.2146 83.2638L74.3482 83.2705C74.4602 83.0375 74.564 82.9478 74.7667 82.9111C75.0827 82.8539 75.3175 83.0302 75.3776 83.3645C75.4394 83.7078 75.2645 83.9675 74.9337 84.0274C74.7399 84.0625 74.5639 84.0081 74.5457 83.9066L74.5429 83.8732C74.5542 83.7818 74.5542 83.7818 74.5499 83.7579C74.5338 83.6684 74.4394 83.6053 74.347 83.6221C74.2456 83.6404 74.1807 83.7416 74.1995 83.846C74.2441 84.0938 74.5944 84.2276 74.9997 84.1542C75.4975 84.064 75.7855 83.6975 75.7066 83.2587C75.6346 82.8588 75.2782 82.6398 74.8341 82.7202C74.6344 82.7564 74.5089 82.8284 74.3583 83.0005L74.2509 82.4036L75.2702 82.219L75.2576 81.8576" fill="#4D4D4D"/>
<defs>
<linearGradient id="paint0_linear" x1="-0.176585" y1="9.6042" x2="120.098" y2="15.0633" gradientUnits="userSpaceOnUse">
<stop stop-color="#6E6D72"/>
<stop offset="0.223958" stop-color="#EDE6E6"/>
<stop offset="0.46875" stop-color="#504645"/>
<stop offset="0.723958" stop-color="#DBD6DA"/>
<stop offset="1" stop-color="#847F83"/>
</linearGradient>
<linearGradient id="paint1_linear" x1="60" y1="25.4578" x2="60" y2="52.9972" gradientUnits="userSpaceOnUse">
<stop stop-color="#584E4D"/>
<stop offset="0.203125" stop-color="#DCD6D6"/>
<stop offset="0.510417" stop-color="#6C6363"/>
<stop offset="0.71875" stop-color="#C6C1C5"/>
<stop offset="1" stop-color="#AAA4A9"/>
</linearGradient>
</defs>
</svg>
