<svg width="69" height="97" viewBox="0 0 69 97" fill="none" xmlns="http://www.w3.org/2000/svg">
<rect x="39" y="43" width="52" height="9" rx="3" transform="rotate(90 39 43)" fill="url(#paint0_linear)"/>
<rect x="18.1811" y="87" width="32.2286" height="9" transform="rotate(1.15318 18.1811 87)" fill="url(#paint1_linear)"/>
<circle cx="34.5" cy="34.5" r="31" fill="white" stroke="url(#paint2_linear)" stroke-width="7"/>
<path d="M33.3809 35.708H30.332V44H28.2812V35.708H25.2734V34.0469H33.3809V35.708ZM36.3545 38.1484H37.4072C37.9085 38.1484 38.2799 38.0231 38.5215 37.7725C38.763 37.5218 38.8838 37.1891 38.8838 36.7744C38.8838 36.3734 38.763 36.0612 38.5215 35.8379C38.2845 35.6146 37.9564 35.5029 37.5371 35.5029C37.1589 35.5029 36.8421 35.6077 36.5869 35.8174C36.3317 36.0225 36.2041 36.2913 36.2041 36.624H34.2285C34.2285 36.1045 34.3675 35.6396 34.6455 35.2295C34.9281 34.8148 35.32 34.4912 35.8213 34.2588C36.3271 34.0264 36.8831 33.9102 37.4893 33.9102C38.542 33.9102 39.3669 34.1631 39.9639 34.6689C40.5609 35.1702 40.8594 35.863 40.8594 36.7471C40.8594 37.2028 40.7204 37.6221 40.4424 38.0049C40.1644 38.3877 39.7998 38.6816 39.3486 38.8867C39.9092 39.0872 40.3262 39.388 40.5996 39.7891C40.8776 40.1901 41.0166 40.6641 41.0166 41.2109C41.0166 42.0951 40.693 42.8037 40.0459 43.3369C39.4033 43.8701 38.5511 44.1367 37.4893 44.1367C36.4958 44.1367 35.6823 43.8747 35.0488 43.3506C34.4199 42.8265 34.1055 42.1338 34.1055 41.2725H36.0811C36.0811 41.6462 36.2201 41.9515 36.498 42.1885C36.7806 42.4255 37.127 42.5439 37.5371 42.5439C38.0065 42.5439 38.3734 42.4209 38.6377 42.1748C38.9066 41.9242 39.041 41.5938 39.041 41.1836C39.041 40.1901 38.4941 39.6934 37.4004 39.6934H36.3545V38.1484Z" fill="black"/>
<path d="M54.8465 31.7538L55.3617 29.0514L56 26.5531L55.4848 29.2555L54.8465 31.7538V31.7538ZM54.2588 30.8431L54.7331 28.0853L55.3335 25.5177L54.8591 28.2754L54.2588 30.8431ZM53.6238 29.9077L54.0981 27.15L54.6985 24.5823L54.2242 27.3401L53.6238 29.9077V29.9077ZM53.0189 29.0748L53.4531 26.2681L54.016 23.6378L53.5818 26.4445L53.0189 29.0748V29.0748ZM52.371 28.2085L52.8052 25.4018L53.3681 22.7715L52.9339 25.5782L52.371 28.2085ZM51.7514 27.45L52.1462 24.6001L52.6722 21.9132L52.2773 24.763L51.7514 27.45ZM50.5352 26.2781L50.8914 23.3904L51.3808 20.6523L51.0246 23.54L50.5352 26.2781ZM49.9016 25.5925L50.2198 22.6717L50.673 19.8876L50.3548 22.8086L49.9016 25.5925ZM49.2227 24.9271L49.5408 22.0064L49.9941 19.2222L49.6759 22.1429L49.2227 24.9271ZM48.579 24.3073L48.8597 21.3581L49.2772 18.5324L48.9964 21.4816L48.579 24.3073V24.3073ZM47.892 23.7071L48.1727 20.7578L48.5901 17.9321L48.3094 20.8814L47.892 23.7071V23.7071ZM46.3435 22.5434L46.5873 19.5697L46.9693 16.7067L46.7255 19.6804L46.3435 22.5434ZM45.684 22.0472L45.8913 19.0529L46.2381 16.1566L46.0308 19.1509L45.684 22.0472ZM44.9837 21.575L45.1911 18.5807L45.5378 15.6844L45.3305 18.6787L44.9837 21.575ZM44.3181 21.1369L44.4893 18.1255L44.8011 15.1996L44.6299 18.211L44.3181 21.1369ZM43.6125 20.7278L43.7837 17.7165L44.0955 14.7906L43.9243 17.802L43.6125 20.7278ZM42.4338 20.0703L42.5692 17.0454L42.8461 14.0934L42.7107 17.1183L42.4338 20.0703V20.0703ZM41.7588 19.7415L41.8587 16.7062L42.136 13.7471L42.0006 16.772L41.7588 19.7415V19.7415ZM41.045 19.4575L41.1449 16.4223L41.3871 13.4475L41.2872 16.4828L41.045 19.4575V19.4575ZM40.3313 19.1736L40.4312 16.1383L40.6734 13.1636L40.5734 16.1989L40.3313 19.1736V19.1736ZM39.6499 18.9583L39.7145 15.9159L39.922 12.9217L39.8574 15.9641L39.6499 18.9583V18.9583ZM38.9332 18.7365L38.9978 15.6941L39.2053 12.6998L39.1407 15.7422L38.9332 18.7365ZM37.5309 18.4107L37.5603 15.3642L37.7332 12.3536L37.7037 15.4L37.5309 18.4107ZM36.846 18.2924L36.8405 15.2449L36.9787 12.2209L36.9842 15.2684L36.846 18.2924V18.2924ZM36.1256 18.1943L36.1202 15.1468L36.2584 12.1228L36.2638 15.1702L36.1256 18.1943ZM35.4398 18.1219L35.3993 15.0763L35.5028 12.042L35.5433 15.0875L35.4398 18.1219ZM34.7186 18.0855L34.6782 15.0399L34.7817 12.0056L34.8221 15.0511L34.7186 18.0855ZM33.311 18.0823L33.2358 15.0417L33.3045 12L33.3798 15.0406L33.311 18.0823V18.0823ZM32.5898 18.1075L32.5146 15.0669L32.5833 12.0252L32.6586 15.0658L32.5898 18.1075ZM31.904 18.1852L31.794 15.1525L31.8278 12.1064L31.9379 15.1391L31.904 18.1852ZM31.1834 18.2721L31.0734 15.2395L31.1073 12.1933L31.2173 15.226L31.1834 18.2721V18.2721ZM30.4987 18.3957L30.3539 15.374L30.3527 12.3264L30.4975 15.3481L30.4987 18.3957ZM29.7795 18.5444L29.6347 15.5227L29.6335 12.4751L29.7783 15.4968L29.7795 18.5444H29.7795ZM29.0962 18.7156L28.9166 15.7079L28.8803 12.6619L29.0599 15.6697L29.0962 18.7156ZM28.3791 18.9263L28.1995 15.9185L28.1632 12.8726L28.3428 15.8803L28.3791 18.9263ZM27.698 19.1469L27.4836 16.1563L27.4119 13.1151L27.6264 16.1057L27.698 19.1469ZM26.9837 19.4197L26.7692 16.4291L26.6976 13.3879L26.912 16.3785L26.9837 19.4197ZM26.3054 19.6918L26.056 16.7214L25.9487 13.688L26.1981 16.6584L26.3054 19.6918ZM25.5946 20.027L25.3452 17.0567L25.238 14.0233L25.4874 16.9936L25.5946 20.027ZM24.2135 20.7504L23.929 17.8037L23.7858 14.7814L24.0703 17.728L24.2135 20.7504V20.7504ZM23.5431 21.1312L23.2234 18.2117L23.044 15.2039L23.3639 18.1261L23.5431 21.1312ZM22.8419 21.5925L22.5221 18.6729L22.3427 15.6651L22.6624 18.5846L22.8419 21.5925ZM22.1769 22.031L21.8216 19.1423L21.6056 16.1526L21.9612 19.0459L22.1769 22.031ZM21.4817 22.5561L21.1264 19.6674L20.9103 16.6776L21.2656 19.5663L21.4817 22.5561V22.5561ZM20.1349 23.6442L19.7438 20.7903L19.4906 17.8224L19.8816 20.6763L20.1349 23.6442ZM19.4841 24.2055L19.0568 21.3906L18.7659 18.4487L19.1934 21.2659L19.4841 24.2055V24.2055ZM18.8037 24.8603L18.3765 22.0454L18.0856 19.1034L18.5128 21.9183L18.8037 24.8603V24.8603ZM18.1621 25.487L17.6983 22.7156L17.369 19.8041L17.8328 22.5753L18.1621 25.487V25.487ZM17.4908 26.2078L17.027 23.4365L16.6977 20.5249L17.1615 23.2962L17.4908 26.2078ZM16.8599 26.9028L16.3591 24.1801L15.9908 21.3037L16.4916 24.0264L16.8599 26.9028ZM15.5805 28.4574L15.0422 25.7887L14.6343 22.9526L15.1725 25.6213L15.5805 28.4574ZM14.9308 29.3135L14.3925 26.6448L13.9846 23.8087L14.5228 26.4774L14.9308 29.3135V29.3135ZM14.3275 30.1549L13.7512 27.5462L13.3027 24.7562L13.879 27.3649L14.3275 30.1549V30.1549ZM13.6907 31.0803L13.1143 28.4716L12.6658 25.6816L13.2421 28.2903L13.6907 31.0803V31.0803ZM13.1048 32L12.4899 29.458L12 26.7205L12.6149 29.2625L13.1048 32Z" fill="#666666"/>
<defs>
<linearGradient id="paint0_linear" x1="39" y1="43" x2="91" y2="43" gradientUnits="userSpaceOnUse">
<stop offset="0.0104167" stop-color="#6E6D72"/>
<stop offset="0.291667" stop-color="#E0DCDD"/>
<stop offset="0.520833" stop-color="#5F5553"/>
<stop offset="0.729167" stop-color="#F6F2F1"/>
<stop offset="1" stop-color="#A29CA0"/>
</linearGradient>
<linearGradient id="paint1_linear" x1="18.1811" y1="87" x2="50.4097" y2="87" gradientUnits="userSpaceOnUse">
<stop offset="0.0104167" stop-color="#6E6D72"/>
<stop offset="0.291667" stop-color="#E0DCDD"/>
<stop offset="0.520833" stop-color="#5F5553"/>
<stop offset="0.729167" stop-color="#F6F2F1"/>
<stop offset="1" stop-color="#A29CA0"/>
</linearGradient>
<linearGradient id="paint2_linear" x1="34.5" y1="7" x2="34.5" y2="62" gradientUnits="userSpaceOnUse">
<stop stop-color="#807F83"/>
<stop offset="0.276042" stop-color="#DAD5D7"/>
<stop offset="0.526042" stop-color="#5C5150"/>
<stop offset="0.739583" stop-color="#BDB9BA"/>
<stop offset="1" stop-color="#615756"/>
</linearGradient>
</defs>
</svg>
