<svg width="120" height="115" viewBox="0 0 120 115" fill="none" xmlns="http://www.w3.org/2000/svg">
<path d="M112 20H8C3.58172 20 0 22.1266 0 24.75V110.25C0 112.873 3.58172 115 8 115H112C116.418 115 120 112.873 120 110.25V24.75C120 22.1266 116.418 20 112 20Z" fill="url(#paint0_linear)"/>
<path d="M95.8804 50.776H24.1196C21.9178 50.776 20.1329 52.5645 20.1329 54.7707V92.7208C20.1329 94.9271 21.9178 96.7156 24.1196 96.7156H95.8804C98.0822 96.7156 99.8671 94.9271 99.8671 92.7208V54.7707C99.8671 52.5645 98.0822 50.776 95.8804 50.776Z" fill="#CCCCCC"/>
<path d="M95.8279 52.3295H24.1721C23.7318 52.3295 23.3748 52.6872 23.3748 53.1285V92.3857C23.3748 92.827 23.7318 93.1847 24.1721 93.1847H95.8279C96.2683 93.1847 96.6252 92.827 96.6252 92.3857V53.1285C96.6252 52.6872 96.2683 52.3295 95.8279 52.3295Z" fill="white"/>
<path d="M90.2243 73.2608L88.9908 71.2634C88.8846 71.0916 88.8311 70.9039 88.7417 70.7266C82.1543 75.6037 71.7427 78.6537 60 78.6537C48.2573 78.6537 37.8582 75.6037 31.2708 70.7266C31.1809 70.9049 31.116 71.0907 31.0092 71.2634L29.7757 73.2608C37.0468 78.2792 47.8804 81.475 60 81.475C72.1155 81.475 82.9533 78.2763 90.2243 73.2608Z" fill="#81797A"/>
<path d="M59.936 31.9792C53.6378 31.9348 14.9876 34.6436 16.0445 46.6224V59.518H103.977V45.5363C103.977 38.052 84.2467 31.9792 59.936 31.9792Z" fill="url(#paint1_linear)"/>
<path d="M92.1587 81.2066L90.7543 78.4419L89.0065 75.8811L90.4109 78.6459L92.1587 81.2066ZM86.0967 84.2433L85.0558 81.3216L83.6484 78.5584L84.6893 81.4801L86.0967 84.2433ZM79.7744 86.5541L79.066 83.5341L77.9758 80.6305L78.6841 83.6505L79.7744 86.5541ZM73.3282 88.1951L72.8825 85.1251L72.0463 82.1381L72.4912 85.2041L73.3282 88.1951ZM66.6924 89.1961L66.5722 86.0961L66.055 83.0373L66.1752 86.1373L66.6924 89.1961ZM59.9948 89.5508L60.198 86.4552L60.002 83.3591L59.7988 86.4547L59.9948 89.5508ZM53.3577 89.2605L53.819 86.1928L53.8825 83.0911L53.4212 86.1588L53.3577 89.2605ZM46.7116 88.3123L47.4958 85.3111L47.8881 82.2338L47.1039 85.235L46.7116 88.3123ZM40.1831 86.7031L41.2912 83.8047L42.0173 80.7904L40.9096 83.6874L40.1831 86.7031ZM33.9058 84.4293L35.2809 81.6498L36.2877 78.7161L34.9131 81.4945L33.9058 84.4293ZM27.774 81.2648L29.5923 78.7527L31.072 76.0289L29.2543 78.5401L27.774 81.2648Z" fill="#666666"/>
<path d="M89.1054 77.87L89.824 79.2403L90.7142 80.5072L89.9956 79.1369L89.1054 77.87ZM88.2858 78.3318L88.9473 79.7302L89.7846 81.0323L89.1231 79.6338L88.2858 78.3318ZM87.4002 78.8061L88.0617 80.2045L88.8991 81.5066L88.2376 80.1081L87.4002 78.8061ZM86.5566 79.2285L87.1622 80.6517L87.9472 81.9855L87.3417 80.5623L86.5566 79.2285ZM85.653 79.6677L86.2586 81.091L87.0436 82.4248L86.438 81.0015L85.653 79.6677ZM84.7889 80.0524L85.3395 81.4975L86.073 82.86L85.5223 81.4149L84.7889 80.0524ZM83.0928 80.6467L83.5896 82.111L84.2721 83.4994L83.7753 82.0351L83.0928 80.6467ZM82.2091 80.9943L82.6529 82.4754L83.285 83.8872L82.8411 82.406L82.2091 80.9943ZM81.2622 81.3317L81.706 82.8128L82.3381 84.2246L81.8943 82.7436L81.2622 81.3317ZM80.3646 81.646L80.7561 83.1415L81.3383 84.5744L80.9468 83.0789L80.3646 81.646ZM79.4064 81.9504L79.7979 83.4459L80.3801 84.8788L79.9886 83.3833L79.4064 81.9504ZM77.2469 82.5405L77.5869 84.0484L78.1197 85.5002L77.7796 83.9923L77.2469 82.5405ZM76.3272 82.7921L76.6163 84.3105L77.0999 85.7791L76.8108 84.2608L76.3272 82.7921ZM75.3505 83.0315L75.6397 84.5499L76.1232 86.0186L75.8341 84.5002L75.3505 83.0315ZM74.4222 83.2537L74.661 84.7807L75.0958 86.2644L74.857 84.7374L74.4222 83.2537ZM73.4382 83.4611L73.677 84.9881L74.1117 86.4718L73.873 84.9448L73.4382 83.4611ZM71.7943 83.7945L71.9831 85.3284L72.3693 86.8253L72.1804 85.2914L71.7943 83.7945ZM70.8529 83.9613L70.9922 85.5004L71.379 87.001L71.1902 85.467L70.8529 83.9613ZM69.8575 84.1053L69.9968 85.6444L70.3345 87.1529L70.1952 85.6137L69.8575 84.1053ZM68.862 84.2492L69.0014 85.7884L69.3391 87.2968L69.1998 85.7577L68.862 84.2492ZM67.9117 84.3584L68.0019 85.9012L68.2912 87.4195L68.2011 85.8768L67.9117 84.3584ZM66.9122 84.4709L67.0023 86.0137L67.2917 87.532L67.2016 85.9892L66.9122 84.4709ZM64.9565 84.6361L64.9976 86.1809L65.2387 87.7076L65.1976 86.1628L64.9565 84.6361ZM64.0013 84.6961L63.9938 86.2414L64.1865 87.7749L64.1941 86.2295L64.0013 84.6961V84.6961ZM62.9967 84.7459L62.9891 86.2912L63.1818 87.8246L63.1894 86.2793L62.9967 84.7459ZM62.0402 84.7826L61.9838 86.3269L62.1281 87.8656L62.1845 86.3213L62.0402 84.7826ZM61.0345 84.801L60.978 86.3454L61.1224 87.8841L61.1788 86.3397L61.0345 84.801ZM59.0714 84.8026L58.9664 86.3445L59.0623 87.8869L59.1672 86.345L59.0714 84.8026ZM58.0655 84.7898L57.9606 86.3317L58.0565 87.8741L58.1614 86.3323L58.0655 84.7898ZM57.1091 84.7505L56.9556 86.2883L57.0029 87.8329L57.1563 86.2951L57.1091 84.7505ZM56.1042 84.7064L55.9507 86.2442L55.9979 87.7888L56.1514 86.251L56.1042 84.7064ZM55.1492 84.6437L54.9472 86.176L54.9456 87.7214L55.1476 86.1891L55.1492 84.6437ZM54.1461 84.5683L53.9442 86.1006L53.9426 87.646L54.1445 86.1137L54.1461 84.5683H54.1461ZM53.1933 84.4815L52.9428 86.0067L52.8922 87.5512L53.1427 86.026L53.1933 84.4815ZM52.1931 84.3747L51.9427 85.8999L51.892 87.4444L52.1425 85.9192L52.1931 84.3747ZM51.2433 84.2628L50.9442 85.7793L50.8443 87.3215L51.1433 85.8049L51.2433 84.2628ZM50.247 84.1244L49.948 85.6409L49.848 87.1831L50.1471 85.6666L50.247 84.1244ZM49.3011 83.9865L48.9533 85.4927L48.8037 87.0309L49.1515 85.5247L49.3011 83.9865ZM48.3098 83.8165L47.962 85.3227L47.8124 86.8609L48.1602 85.3547L48.3098 83.8165ZM46.3836 83.4497L45.9869 84.9439L45.7872 86.4765L46.1839 84.9823L46.3836 83.4497ZM45.4487 83.2566L45.0028 84.737L44.7526 86.2622L45.1987 84.7804L45.4487 83.2566ZM44.4707 83.0227L44.0248 84.5031L43.7746 86.0284L44.2205 84.5479L44.4707 83.0227ZM43.5433 82.8003L43.0479 84.2651L42.7465 85.7812L43.2425 84.314L43.5433 82.8003ZM42.5737 82.534L42.0783 83.9989L41.777 85.5149L42.2724 84.0501L42.5737 82.534ZM40.6954 81.9822L40.1501 83.4294L39.7969 84.9344L40.3423 83.4872L40.6954 81.9822ZM39.7878 81.6976L39.192 83.125L38.7863 84.6169L39.3824 83.1883L39.7878 81.6976ZM38.839 81.3656L38.2432 82.793L37.8375 84.2848L38.4333 82.8574L38.839 81.3656ZM37.9441 81.0478L37.2973 82.4531L36.8382 83.9296L37.4849 82.5243L37.9441 81.0478ZM37.0079 80.6823L36.3611 82.0876L35.9019 83.564L36.5487 82.1587L37.0079 80.6823ZM36.128 80.3298L35.4296 81.7105L34.9161 83.1691L35.6145 81.7885L36.128 80.3298ZM34.3438 79.5416L33.5931 80.8948L33.0241 82.333L33.7748 80.9797L34.3438 79.5416ZM33.4377 79.1074L32.687 80.4607L32.118 81.8989L32.8687 80.5456L33.4377 79.1074ZM32.5963 78.6808L31.7926 80.0036L31.1671 81.4184L31.9708 80.0956L32.5963 78.6808ZM31.7081 78.2115L30.9044 79.5343L30.2789 80.9491L31.0826 79.6263L31.7081 78.2115ZM30.8911 77.7451L30.0335 79.0342L29.3503 80.4223L30.2078 79.1333L30.8911 77.7451Z" fill="#666666"/>
<path d="M27.2264 82.1059C27.0533 82.0057 26.8378 81.9791 26.6539 82.0373C26.4023 82.1158 26.1392 82.3418 25.9819 82.6149C25.6627 83.1691 25.7345 83.7184 26.1568 83.9628C26.5791 84.2072 27.0934 84.0005 27.4035 83.4621C27.7258 82.9026 27.654 82.3533 27.2264 82.1059ZM27.1643 82.238C27.2771 82.3033 27.3491 82.4151 27.3625 82.5558C27.3836 82.7256 27.2957 82.9935 27.1308 83.2798C27.0067 83.4951 26.8644 83.6754 26.7292 83.7827C26.5822 83.9043 26.3842 83.9263 26.2346 83.8398C26.0668 83.7426 25.9906 83.541 26.0392 83.3169C26.0744 83.1587 26.1472 82.9837 26.2485 82.8077C26.362 82.6108 26.5417 82.396 26.6841 82.2824C26.8307 82.1676 27.0121 82.15 27.1643 82.238Z" fill="#4D4D4D"/>
<path d="M34.1388 85.3228L34.0331 85.2771C33.9459 85.3418 33.9065 85.3413 33.7647 85.28L32.9246 84.9169L32.4947 85.9166L32.6023 85.9962C32.824 85.8641 32.96 85.847 33.1492 85.9287C33.444 86.0562 33.5426 86.3333 33.4085 86.6452C33.2707 86.9654 32.9818 87.085 32.6731 86.9515C32.4923 86.8733 32.3756 86.7304 32.4163 86.6357L32.4324 86.6064C32.4921 86.5364 32.4921 86.5364 32.5017 86.5142C32.5377 86.4306 32.4937 86.3257 32.4075 86.2885C32.3129 86.2476 32.2031 86.2959 32.1611 86.3934C32.0617 86.6245 32.2799 86.9302 32.6582 87.0937C33.1228 87.2945 33.5648 87.1487 33.7409 86.7394C33.9014 86.3662 33.725 85.9861 33.3106 85.807C33.1242 85.7264 32.9799 85.7168 32.7595 85.7768L32.999 85.2198L33.9503 85.6311L34.1389 85.3229" fill="#4D4D4D"/>
<path d="M39.1666 87.0881L39.0732 87.0622C38.8713 87.0534 38.8068 87.0481 38.5051 87.0023L38.4809 87.09L38.5961 87.1282C38.8069 87.1961 38.8264 87.2392 38.7628 87.4702L38.4542 88.5899C38.4107 88.7478 38.3891 88.7921 38.3518 88.8132C38.2922 88.8471 38.1958 88.8549 38.1007 88.8349L38.0027 88.814L37.9786 88.9018L38.9743 89.1777L38.9985 89.09L38.9066 89.0583C38.6888 88.9821 38.6608 88.924 38.73 88.6726L39.1666 87.0881" fill="#4D4D4D"/>
<path d="M40.7882 87.4963C40.5955 87.4429 40.3803 87.4713 40.2169 87.5739C39.9931 87.7133 39.7952 87.9982 39.7114 88.3022C39.5415 88.919 39.7488 89.4327 40.2188 89.563C40.6889 89.6933 41.1347 89.3638 41.2998 88.7645C41.4714 88.1419 41.2641 87.6282 40.7882 87.4963ZM40.7613 87.6398C40.8868 87.6746 40.9846 87.7647 41.0328 87.8976C41.0958 88.0566 41.078 88.338 40.9902 88.6567C40.9241 88.8964 40.8316 89.1067 40.7276 89.2446C40.6159 89.3993 40.4297 89.4704 40.2633 89.4243C40.0765 89.3725 39.9521 89.1965 39.943 88.9674C39.9373 88.8053 39.9639 88.6176 40.0179 88.4218C40.0783 88.2025 40.1983 87.9495 40.3076 87.8036C40.4207 87.6556 40.5919 87.5929 40.7613 87.6398Z" fill="#4D4D4D"/>
<path d="M45.7243 88.6674L45.6289 88.6503C45.4271 88.6605 45.3623 88.6613 45.0577 88.6439L45.0419 88.7335L45.1601 88.7608C45.3762 88.8086 45.3997 88.8497 45.3579 89.0857L45.1551 90.2294C45.1265 90.3907 45.1091 90.4369 45.074 90.4614C45.0178 90.5007 44.9225 90.5176 44.826 90.5065L44.7265 90.4949L44.7106 90.5845L45.7276 90.766L45.7435 90.6764L45.6491 90.6534C45.4251 90.598 45.3918 90.5428 45.4374 90.286L45.7243 88.6674" fill="#4D4D4D"/>
<path d="M48.0093 88.9639L47.896 88.9436C47.8259 89.0266 47.7875 89.0352 47.6354 89.008L46.7349 88.8473L46.5448 89.9194L46.6678 89.9721C46.8534 89.7927 46.9819 89.7447 47.1846 89.7809C47.5007 89.8373 47.6599 90.0845 47.6007 90.4189C47.5398 90.7623 47.2859 90.945 46.9549 90.8859C46.7611 90.8513 46.6149 90.739 46.6329 90.6375L46.6418 90.6052C46.684 90.5234 46.684 90.5234 46.6883 90.4995C46.7041 90.4099 46.6374 90.3179 46.5449 90.3014C46.4436 90.2833 46.3477 90.3555 46.3292 90.46C46.2852 90.7079 46.5674 90.9554 46.973 91.0278C47.471 91.1167 47.8679 90.8733 47.9457 90.4343C48.0166 90.0341 47.7582 89.7046 47.3139 89.6253C47.1141 89.5897 46.9714 89.6135 46.7706 89.7225L46.8765 89.1252L47.8963 89.3072L48.0095 88.9639" fill="#4D4D4D"/>
<path d="M53.0429 91.1637L52.9305 91.1246L52.895 91.1918C52.7741 91.4198 52.7014 91.4568 52.4267 91.4357L51.7413 91.383C52.1181 91.1838 52.2359 91.1138 52.3934 91.0011C52.7695 90.7319 52.966 90.4672 52.9859 90.2101C53.0124 89.8653 52.7234 89.5967 52.2886 89.5632C51.8931 89.5328 51.5409 89.7673 51.5171 90.0758C51.5059 90.221 51.5881 90.3368 51.7028 90.3457C51.7934 90.3526 51.881 90.2803 51.8875 90.1956C51.8898 90.1654 51.8778 90.1249 51.8588 90.096C51.8095 90.0253 51.8021 90.0034 51.8061 89.952C51.8173 89.8069 52.0329 89.6896 52.2533 89.7065C52.5008 89.7256 52.6513 89.9014 52.6329 90.1404C52.6151 90.3702 52.4857 90.5915 52.2134 90.8534C51.9971 91.0589 51.8018 91.1899 51.4034 91.3935L51.3871 91.6052L52.8544 91.7181L53.0429 91.1637" fill="#4D4D4D"/>
<path d="M54.2322 89.7131C54.0329 89.6977 53.8272 89.767 53.6864 89.8991C53.4935 90.0789 53.3537 90.3966 53.3295 90.7112C53.2806 91.3493 53.5821 91.8138 54.0682 91.8514C54.5542 91.8889 54.9288 91.4798 54.9764 90.8598C55.0258 90.2156 54.7243 89.7511 54.2322 89.7131ZM54.2331 89.8592C54.363 89.8692 54.4761 89.9388 54.5488 90.06C54.641 90.2041 54.6772 90.4837 54.6519 90.8134C54.6329 91.0614 54.5823 91.2857 54.5066 91.4411C54.4265 91.6144 54.2574 91.7199 54.0853 91.7066C53.8921 91.6917 53.7365 91.5428 53.6838 91.3196C53.6473 91.1617 53.6375 90.9723 53.6531 90.7697C53.6705 90.5428 53.7399 90.2713 53.8193 90.1071C53.902 89.9401 54.058 89.8457 54.2331 89.8592Z" fill="#4D4D4D"/>
<path d="M60.0815 91.4556L59.9661 91.427L59.9368 91.4972C59.8373 91.7353 59.7682 91.7787 59.4928 91.7827L58.8055 91.7926C59.1625 91.5599 59.2734 91.4794 59.42 91.3529C59.7699 91.0506 59.9415 90.769 59.9378 90.5111C59.9329 90.1653 59.6206 89.9241 59.1846 89.9304C58.788 89.9361 58.4587 90.2018 58.4632 90.5112C58.4653 90.6568 58.5577 90.7647 58.6727 90.763C58.7635 90.7617 58.8441 90.6817 58.8429 90.5967C58.8425 90.5664 58.8268 90.5272 58.8052 90.5002C58.7497 90.4342 58.7404 90.4131 58.7396 90.3616C58.7375 90.216 58.9415 90.0795 59.1625 90.0763C59.4107 90.0728 59.5766 90.2342 59.58 90.4738C59.5833 90.7044 59.4746 90.9365 59.2274 91.2222C59.0307 91.4465 58.8481 91.5948 58.47 91.8339L58.4731 92.0462L59.9444 92.025L60.0816 91.4556" fill="#4D4D4D"/>
<path d="M61.7633 89.8234L61.6483 89.8251C61.5951 89.9199 61.559 89.9356 61.4046 89.9378L60.4903 89.951L60.5059 91.04L60.6365 91.0684C60.7849 90.8569 60.902 90.7855 61.1078 90.7825C61.4287 90.7778 61.6316 90.9903 61.6365 91.3301C61.6415 91.6789 61.4267 91.9065 61.0907 91.9114C60.8939 91.9142 60.7292 91.8316 60.7277 91.7285L60.7305 91.6951C60.7564 91.6067 60.7564 91.6067 60.7561 91.5825C60.7548 91.4915 60.6719 91.4138 60.5781 91.4151C60.4751 91.4166 60.3947 91.5058 60.3962 91.6119C60.3998 91.8637 60.7235 92.0532 61.1352 92.0473C61.6408 92.04 61.9845 91.7255 61.9781 91.2796C61.9723 90.8732 61.6564 90.5986 61.2054 90.6051C61.0025 90.6081 60.867 90.6586 60.6904 90.8037L60.6817 90.197L61.7171 90.1821L61.7634 89.8234" fill="#4D4D4D"/>
<path d="M66.0912 90.761C66.2138 90.7378 66.2648 90.7301 66.301 90.7268C66.4367 90.7146 66.5853 90.7438 66.6725 90.7999C66.7758 90.8667 66.8495 91.0092 66.8638 91.1663C66.8917 91.4744 66.7151 91.6731 66.3923 91.7023C66.2596 91.7143 66.1426 91.6975 66.0532 91.6507C65.9926 91.6197 65.9413 91.5573 65.937 91.5089C65.9362 91.4999 65.9385 91.4905 65.94 91.4752C65.9551 91.4068 65.9551 91.4068 65.9518 91.3705C65.9431 91.2739 65.8671 91.2076 65.7676 91.2166C65.6651 91.2259 65.5921 91.3269 65.6025 91.4417C65.6126 91.5535 65.6954 91.6617 65.8207 91.7357C65.9811 91.8278 66.1634 91.86 66.3926 91.8393C66.8993 91.7936 67.2374 91.498 67.2041 91.1295C67.1879 90.9513 67.0799 90.7996 66.9179 90.7229C66.8162 90.6742 66.7353 90.6541 66.5481 90.6345C66.7164 90.5797 66.7918 90.5394 66.8648 90.4719C66.9627 90.3777 67.0178 90.2479 67.0069 90.127C66.9812 89.8431 66.6577 89.6621 66.2414 89.6998C66.0605 89.7161 65.9135 89.772 65.8003 89.8645C65.67 89.9707 65.5951 90.1175 65.6072 90.2505C65.6173 90.3622 65.7001 90.437 65.7996 90.428C65.8901 90.4198 65.9595 90.3465 65.9523 90.268C65.9504 90.2468 65.9422 90.2232 65.9307 90.1969C65.8871 90.1186 65.8871 90.1186 65.8849 90.0944C65.8737 89.9705 66.0306 89.8559 66.2357 89.8373C66.486 89.8147 66.6623 89.948 66.683 90.1776C66.6923 90.2803 66.6575 90.3992 66.5963 90.4626C66.5245 90.5422 66.3781 90.6041 66.2303 90.6175C66.2062 90.6197 66.1546 90.6211 66.0789 90.6251L66.0912 90.761" fill="#4D4D4D"/>
<path d="M68.1384 89.5278C67.9394 89.5458 67.748 89.6485 67.6311 89.8023C67.4706 90.0118 67.3853 90.3484 67.4137 90.6626C67.4711 91.3 67.8453 91.7077 68.3309 91.6636C68.8165 91.6195 69.1181 91.1536 69.0623 90.5343C69.0043 89.8908 68.63 89.4831 68.1384 89.5278ZM68.1636 89.6717C68.2933 89.6599 68.4163 89.7097 68.5081 89.8171C68.6229 89.9437 68.705 90.2134 68.7346 90.5427C68.757 90.7904 68.7442 91.02 68.6953 91.1859C68.645 91.3701 68.4958 91.5024 68.3239 91.518C68.1309 91.5356 67.9527 91.4147 67.8638 91.2035C67.8016 91.0538 67.7606 90.8687 67.7424 90.6663C67.722 90.4397 67.7455 90.1604 67.7966 89.9852C67.8504 89.8067 67.9887 89.6875 68.1636 89.6717Z" fill="#4D4D4D"/>
<path d="M86.4014 85.188L86.1333 85.2928L86.1089 85.3804L85.9199 86.1736L85.7064 86.9374L85.7938 87.0367L86.6771 86.6914L86.7233 86.81C86.7727 86.9372 86.789 86.9959 86.7858 87.046C86.783 87.1057 86.7341 87.1638 86.6657 87.1971L86.5748 87.2391L86.6078 87.3239L87.4233 87.0051L87.3904 86.9203L87.295 86.951C87.2223 86.973 87.1499 86.9623 87.1047 86.9213C87.0713 86.8856 87.0397 86.8295 86.9914 86.7052L86.9452 86.5866L87.3121 86.4431L87.3116 86.2578L86.8826 86.4255L86.4014 85.188L86.4014 85.188ZM86.6145 86.5303L85.8892 86.8138C85.8946 86.7857 85.9009 86.7604 85.9102 86.734L85.9929 86.4283L86.11 85.9854L86.2267 85.5329L86.6145 86.5303Z" fill="#4D4D4D"/>
<path d="M88.3115 84.3245L88.2042 84.3664C88.1875 84.4738 88.1591 84.5012 88.0152 84.5575L87.1629 84.8907L87.5573 85.905L87.6896 85.8858C87.7549 85.6357 87.8397 85.5277 88.0316 85.4527C88.3308 85.3357 88.5951 85.4635 88.7181 85.78C88.8445 86.1049 88.7226 86.3934 88.4093 86.5159C88.2259 86.5876 88.0427 86.5681 88.0054 86.472L87.9962 86.4398C87.9898 86.3479 87.9898 86.3479 87.981 86.3253C87.9481 86.2405 87.8433 86.1969 87.7558 86.2311C87.6598 86.2686 87.6155 86.3803 87.6539 86.4792C87.7451 86.7137 88.1146 86.7776 88.4984 86.6275C88.9698 86.4433 89.1823 86.0282 89.0207 85.6129C88.8735 85.2343 88.4817 85.0879 88.0612 85.2523C87.8721 85.3262 87.7627 85.4211 87.6478 85.619L87.4281 85.0539L88.3933 84.6766L88.3116 84.3244" fill="#4D4D4D"/>
<path d="M79.8606 87.3744L79.5836 87.4524L79.5506 87.5372L79.2849 88.308L78.9976 89.0471L79.0748 89.1545L79.9877 88.8978L80.022 89.0204C80.0587 89.1518 80.0692 89.2119 80.061 89.2614C80.0524 89.3205 79.998 89.3736 79.9267 89.4L79.8321 89.4329L79.8566 89.5205L80.6994 89.2834L80.675 89.1958L80.5771 89.217C80.5025 89.2317 80.4315 89.2139 80.3906 89.1687C80.3608 89.1298 80.3349 89.071 80.299 88.9425L80.2647 88.8198L80.6439 88.7132L80.6615 88.5287L80.2182 88.6534L79.8606 87.3744ZM79.9411 88.7313L79.1916 88.9421C79.1997 88.9147 79.2085 88.8901 79.2203 88.8648L79.3326 88.5686L79.4925 88.1394L79.6529 87.7006L79.9411 88.7313Z" fill="#4D4D4D"/>
<path d="M81.2582 86.9408C81.0657 86.995 80.8961 87.1309 80.8091 87.3034C80.6893 87.5387 80.6666 87.8852 80.7515 88.1889C80.9238 88.8051 81.3659 89.1375 81.8354 89.0054C82.305 88.8733 82.517 88.3601 82.3496 87.7615C82.1757 87.1395 81.7336 86.8071 81.2582 86.9408ZM81.3091 87.0777C81.4345 87.0425 81.5646 87.0689 81.6744 87.1577C81.8103 87.2612 81.94 87.5114 82.029 87.8297C82.0959 88.0691 82.1251 88.2971 82.1071 88.4691C82.0911 88.6595 81.9683 88.8168 81.8021 88.8636C81.6154 88.9161 81.4183 88.8298 81.2924 88.6384C81.2041 88.5026 81.1302 88.3281 81.0755 88.1324C81.0143 87.9134 80.9866 87.6346 81.0051 87.453C81.0256 87.2677 81.1399 87.1253 81.3091 87.0777Z" fill="#4D4D4D"/>
<path d="M92.5794 82.1636L92.4766 82.2153C92.47 82.3238 92.4443 82.3537 92.3063 82.4232L91.4887 82.8347L91.977 83.8072L92.1069 83.7757C92.1485 83.5207 92.2228 83.4052 92.4068 83.3126C92.6938 83.1682 92.969 83.2706 93.1213 83.574C93.2777 83.8855 93.1835 84.1841 92.883 84.3353C92.707 84.4239 92.5227 84.4216 92.4765 84.3295L92.4644 84.2983C92.4493 84.2074 92.4493 84.2075 92.4384 84.1858C92.3976 84.1045 92.2892 84.0709 92.2053 84.1131C92.1132 84.1594 92.0796 84.2748 92.1272 84.3696C92.2401 84.5944 92.614 84.6234 92.9822 84.4381C93.4343 84.2106 93.6069 83.7776 93.407 83.3794C93.2247 83.0163 92.8208 82.9074 92.4174 83.1104C92.2361 83.2017 92.136 83.3064 92.0402 83.5141L91.7682 82.9723L92.694 82.5063L92.5796 82.1635" fill="#4D4D4D"/>
<path d="M93.7223 81.6661C93.5437 81.7561 93.4031 81.9219 93.3506 82.1079C93.2779 82.3618 93.3218 82.7062 93.4631 82.988C93.7498 83.5598 94.2472 83.8013 94.6829 83.5817C95.1187 83.3622 95.2288 82.8179 94.9503 82.2625C94.6609 81.6853 94.1635 81.4438 93.7223 81.6661ZM93.7984 81.7907C93.9147 81.732 94.0475 81.733 94.1722 81.7992C94.3253 81.8748 94.5004 82.0954 94.6485 82.3908C94.7599 82.613 94.8321 82.8312 94.8472 83.0034C94.8679 83.1933 94.7774 83.3712 94.6231 83.449C94.4499 83.5362 94.2399 83.4893 94.0799 83.3256C93.9673 83.2092 93.8614 83.0521 93.7703 82.8706C93.6684 82.6673 93.5881 82.3989 93.5715 82.2172C93.5563 82.0314 93.6414 81.8697 93.7984 81.7907Z" fill="#4D4D4D"/>
<path d="M72.7185 89.9688C72.8386 89.9347 72.8887 89.9225 72.9245 89.9161C73.0586 89.8918 73.2092 89.9077 73.3009 89.9558C73.4097 90.0131 73.4957 90.1486 73.5236 90.3038C73.5783 90.6082 73.4198 90.8219 73.1009 90.8796C72.9697 90.9034 72.8516 90.897 72.7585 90.8584C72.6954 90.8328 72.6389 90.7753 72.6303 90.7275C72.6287 90.7185 72.6302 90.709 72.6304 90.6936C72.6395 90.6242 72.6395 90.6242 72.633 90.5883C72.6158 90.4928 72.5344 90.4336 72.436 90.4514C72.3347 90.4698 72.2709 90.5769 72.2913 90.6903C72.3112 90.8007 72.4031 90.9012 72.5344 90.9637C72.7022 91.0412 72.8866 91.0571 73.1131 91.0161C73.6139 90.9254 73.9248 90.601 73.8593 90.2368C73.8276 90.0607 73.7068 89.9193 73.5387 89.8573C73.4331 89.8178 73.3508 89.805 73.1625 89.8021C73.3254 89.7325 73.397 89.6857 73.4638 89.6119C73.5531 89.5095 73.5966 89.3752 73.5751 89.2558C73.5247 88.9753 73.1866 88.8238 72.7753 88.8983C72.5964 88.9307 72.4549 88.9995 72.3502 89.1016C72.2297 89.219 72.168 89.3719 72.1916 89.5033C72.2115 89.6137 72.3005 89.6808 72.3989 89.663C72.4883 89.6468 72.551 89.5677 72.537 89.4901C72.5333 89.4691 72.523 89.4464 72.5092 89.4211C72.459 89.347 72.459 89.347 72.4547 89.3231C72.4327 89.2008 72.5789 89.0726 72.7815 89.0359C73.0289 88.9911 73.2162 89.1082 73.257 89.335C73.2752 89.4365 73.2509 89.558 73.1956 89.6266C73.131 89.7123 72.9905 89.787 72.8445 89.8135C72.8207 89.8178 72.7694 89.8238 72.6944 89.8345L72.7185 89.9688" fill="#4D4D4D"/>
<path d="M75.2574 88.3784L75.1441 88.3989C75.1071 88.5011 75.074 88.5225 74.922 88.5501L74.0219 88.7131L74.2146 89.7846L74.3482 89.7913C74.4601 89.5583 74.564 89.4686 74.7667 89.4319C75.0827 89.3747 75.3175 89.551 75.3776 89.8853C75.4394 90.2286 75.2645 90.4883 74.9337 90.5482C74.7399 90.5833 74.5639 90.5289 74.5457 90.4274L74.5429 90.394C74.5542 90.3026 74.5542 90.3026 74.5499 90.2787C74.5338 90.1891 74.4394 90.1261 74.347 90.1429C74.2456 90.1612 74.1807 90.2623 74.1995 90.3668C74.2441 90.6145 74.5944 90.7484 74.9997 90.675C75.4975 90.5848 75.7855 90.2183 75.7066 89.7795C75.6346 89.3796 75.2782 89.1606 74.8341 89.241C74.6344 89.2771 74.5089 89.3492 74.3582 89.5213L74.2509 88.9243L75.2702 88.7398L75.2575 88.3784" fill="#4D4D4D"/>
<path d="M58.6255 70.873L60.1831 65.1797H62.2886L59.6567 73H57.5942L54.9839 65.1797H57.0732L58.6255 70.873Z" fill="#B7B2B6"/>
<defs>
<linearGradient id="paint0_linear" x1="-0.176585" y1="16.125" x2="120.098" y2="21.5841" gradientUnits="userSpaceOnUse">
<stop stop-color="#6E6D72"/>
<stop offset="0.223958" stop-color="#EDE6E6"/>
<stop offset="0.46875" stop-color="#504645"/>
<stop offset="0.723958" stop-color="#DBD6DA"/>
<stop offset="1" stop-color="#847F83"/>
</linearGradient>
<linearGradient id="paint1_linear" x1="60" y1="31.9786" x2="60" y2="59.518" gradientUnits="userSpaceOnUse">
<stop stop-color="#584E4D"/>
<stop offset="0.203125" stop-color="#DCD6D6"/>
<stop offset="0.510417" stop-color="#6C6363"/>
<stop offset="0.71875" stop-color="#C6C1C5"/>
<stop offset="1" stop-color="#AAA4A9"/>
</linearGradient>
</defs>
</svg>
