<svg width="77" height="13" viewBox="0 0 77 13" fill="none" xmlns="http://www.w3.org/2000/svg">
<path d="M11.6631 13H8.5957V7.65625H4.05176V13H0.966797V0.203125H4.05176V5.2832H8.5957V0.203125H11.6631V13ZM17.6748 0.203125L20.5312 9.10645L23.3789 0.203125H27.4395V13H24.3457V10.0117L24.6445 3.89453L21.5508 13H19.5117L16.4092 3.88574L16.708 10.0117V13H13.623V0.203125H17.6748ZM39.1904 2.58496H35.3496V13H32.2646V2.58496H28.4941V0.203125H39.1904V2.58496ZM47.54 10.627H52.9102V13H44.4551V0.203125H47.54V10.627ZM61.6553 10.6094H57.4277L56.6895 13H53.3936L58.0869 0.203125H60.9873L65.7158 13H62.4023L61.6553 10.6094ZM58.166 8.22754H60.917L59.5371 3.78906L58.166 8.22754ZM66.6562 13V0.203125H71.2529C72.8994 0.203125 74.1504 0.504883 75.0059 1.1084C75.8672 1.71191 76.2979 2.58789 76.2979 3.73633C76.2979 4.39844 76.1455 4.96387 75.8408 5.43262C75.5361 5.90137 75.0879 6.24707 74.4961 6.46973C75.1641 6.64551 75.6768 6.97363 76.0342 7.4541C76.3916 7.93457 76.5703 8.52051 76.5703 9.21191C76.5703 10.4658 76.1719 11.4092 75.375 12.042C74.584 12.6689 73.4092 12.9883 71.8506 13H66.6562ZM69.7412 7.55957V10.627H71.7627C72.3193 10.627 72.7471 10.501 73.0459 10.249C73.3447 9.99121 73.4941 9.63086 73.4941 9.16797C73.4941 8.10156 72.9639 7.56543 71.9033 7.55957H69.7412ZM69.7412 5.53809H71.3496C72.0234 5.53223 72.5039 5.40918 72.791 5.16895C73.0781 4.92871 73.2217 4.57422 73.2217 4.10547C73.2217 3.56641 73.0664 3.17969 72.7559 2.94531C72.4453 2.70508 71.9443 2.58496 71.2529 2.58496H69.7412V5.53809Z" fill="white"/>
</svg>
