<svg width="63" height="9" viewBox="0 0 63 9" fill="none" xmlns="http://www.w3.org/2000/svg">
<path d="M3.58789 6.06104L5.36035 0.179688H7.1543L4.43115 8H2.75L0.0375977 0.179688H1.82617L3.58789 6.06104ZM14.2441 4.26709C14.2441 5.03695 14.1081 5.71191 13.8359 6.29199C13.5638 6.87207 13.1735 7.31966 12.665 7.63477C12.1602 7.94987 11.5801 8.10742 10.9248 8.10742C10.2767 8.10742 9.6984 7.95166 9.18994 7.64014C8.68148 7.32861 8.2876 6.8846 8.0083 6.30811C7.729 5.72803 7.58757 5.06201 7.58398 4.31006V3.92334C7.58398 3.15348 7.72184 2.47673 7.99756 1.89307C8.27686 1.30583 8.66895 0.856445 9.17383 0.544922C9.68229 0.229818 10.2624 0.0722656 10.9141 0.0722656C11.5658 0.0722656 12.144 0.229818 12.6489 0.544922C13.1574 0.856445 13.5495 1.30583 13.8252 1.89307C14.1045 2.47673 14.2441 3.15169 14.2441 3.91797V4.26709ZM12.6113 3.9126C12.6113 3.09261 12.4645 2.46956 12.1709 2.04346C11.8773 1.61735 11.4583 1.4043 10.9141 1.4043C10.3734 1.4043 9.95622 1.61556 9.6626 2.03809C9.36898 2.45703 9.22038 3.07292 9.2168 3.88574V4.26709C9.2168 5.06559 9.36361 5.68506 9.65723 6.12549C9.95085 6.56592 10.3734 6.78613 10.9248 6.78613C11.4655 6.78613 11.8809 6.57487 12.1709 6.15234C12.4609 5.72624 12.6077 5.10677 12.6113 4.29395V3.9126ZM17.0264 6.70557H20.4478V8H15.415V0.179688H17.0264V6.70557ZM26.1572 1.48486H23.7617V8H22.1504V1.48486H19.7871V0.179688H26.1572V1.48486ZM29.1865 0.179688L31.1953 5.85156L33.1934 0.179688H35.3096V8H33.6929V5.8623L33.854 2.17236L31.7432 8H30.6367L28.5312 2.17773L28.6924 5.8623V8H27.0811V0.179688H29.1865ZM41.4219 4.61084H38.3281V6.70557H41.959V8H36.7168V0.179688H41.9482V1.48486H38.3281V3.34863H41.4219V4.61084ZM48.8984 1.48486H46.5029V8H44.8916V1.48486H42.5283V0.179688H48.8984V1.48486ZM54.5273 4.61084H51.4336V6.70557H55.0645V8H49.8223V0.179688H55.0537V1.48486H51.4336V3.34863H54.5273V4.61084ZM58.9048 5.13721H57.6211V8H56.0098V0.179688H58.9155C59.8394 0.179688 60.5519 0.385579 61.0532 0.797363C61.5545 1.20915 61.8052 1.79102 61.8052 2.54297C61.8052 3.0765 61.6888 3.5223 61.4561 3.88037C61.2269 4.23486 60.8778 4.51774 60.4087 4.729L62.1006 7.9248V8H60.3711L58.9048 5.13721ZM57.6211 3.83203H58.9209C59.3255 3.83203 59.6388 3.72998 59.8608 3.52588C60.0828 3.3182 60.1938 3.03353 60.1938 2.67188C60.1938 2.30306 60.0882 2.01302 59.877 1.80176C59.6693 1.59049 59.3488 1.48486 58.9155 1.48486H57.6211V3.83203Z" fill="black"/>
</svg>
